<svg width="24" height="24" viewBox="0 0 24 24" fill="none" xmlns="http://www.w3.org/2000/svg">
<path d="M22.5 17L17.5 22L14 18.5L15.5 17L17.5 19L21 15.5L22.5 17ZM12.1 19.9C11.7 20 11.4 20 11 20C6.6 20 3 16.4 3 12C3 7.6 6.6 4 11 4C15.4 4 19 7.6 19 12C19 12.4 19 12.7 18.9 13.1C19.6 13.2 20.2 13.4 20.8 13.7C20.9 13.1 21 12.6 21 12C21 6.5 16.5 2 11 2C5.5 2 1 6.5 1 12C1 17.5 5.5 22 11 22C11.6 22 12.2 21.9 12.7 21.8C12.4 21.3 12.2 20.6 12.1 19.9ZM14.6 14.1L11.5 12.3V7H10V13L13.5 15.1C13.8 14.7 14.2 14.4 14.6 14.1Z" fill="#CD35EE"/>
</svg>
