<svg width="24" height="24" viewBox="0 0 24 24" fill="none" xmlns="http://www.w3.org/2000/svg">
<path d="M21 9C19.5 9 18.7 10.4 19.1 11.5L15.5 15.1C15.2 15 14.8 15 14.5 15.1L11.9 12.5C12.3 11.4 11.5 10 10 10C8.6 10 7.7 11.4 8.1 12.5L3.5 17C2.4 16.7 1 17.5 1 19C1 20.1 1.9 21 3 21C4.4 21 5.3 19.6 4.9 18.5L9.4 13.9C9.7 14 10.1 14 10.4 13.9L13 16.5C12.7 17.5 13.5 19 15 19C16.5 19 17.3 17.6 16.9 16.5L20.5 12.9C21.6 13.2 23 12.4 23 11C23 9.9 22.1 9 21 9ZM15 10L15.9 7.9L18 7L15.9 6.1L15 4L14.1 6.1L12 7L14.1 7.9L15 10ZM3.5 12L4 10L6 9.5L4 9L3.5 7L3 9L1 9.5L3 10L3.5 12Z" fill="#CD35EE"/>
</svg>
