<svg width="118" height="36" viewBox="0 0 118 36" fill="none" xmlns="http://www.w3.org/2000/svg">
<rect width="118" height="36" rx="4" fill="#F3CDFB"/>
<circle cx="20" cy="18" r="15" fill="#DA68F2"/>
<path d="M28.125 14.6667C26.6875 14.6667 25.9208 16.0083 26.3041 17.0625L22.8541 20.5125C22.5666 20.4167 22.1833 20.4167 21.8958 20.5125L19.4041 18.0208C19.7875 16.9667 19.0208 15.625 17.5833 15.625C16.2416 15.625 15.3791 16.9667 15.7625 18.0208L11.3541 22.3333C10.3 22.0458 8.95831 22.8125 8.95831 24.25C8.95831 25.3042 9.82081 26.1667 10.875 26.1667C12.2166 26.1667 13.0791 24.825 12.6958 23.7708L17.0083 19.3625C17.2958 19.4583 17.6791 19.4583 17.9666 19.3625L20.4583 21.8542C20.1708 22.8125 20.9375 24.25 22.375 24.25C23.8125 24.25 24.5791 22.9083 24.1958 21.8542L27.6458 18.4042C28.7 18.6917 30.0416 17.925 30.0416 16.5833C30.0416 15.5292 29.1791 14.6667 28.125 14.6667ZM22.375 15.625L23.2375 13.6125L25.25 12.75L23.2375 11.8875L22.375 9.875L21.5125 11.8875L19.5 12.75L21.5125 13.6125L22.375 15.625ZM11.3541 17.5417L11.8333 15.625L13.75 15.1458L11.8333 14.6667L11.3541 12.75L10.875 14.6667L8.95831 15.1458L10.875 15.625L11.3541 17.5417Z" fill="white"/>
<path d="M40.8 29V8H43.53L54.015 24.44V8H56.535V29H53.82L43.32 12.56V29H40.8ZM66.5895 29.39C65.2095 29.39 63.9495 29.035 62.8095 28.325C61.6795 27.615 60.7745 26.665 60.0945 25.475C59.4245 24.275 59.0895 22.95 59.0895 21.5C59.0895 20.4 59.2845 19.375 59.6745 18.425C60.0645 17.465 60.5995 16.625 61.2795 15.905C61.9695 15.175 62.7695 14.605 63.6795 14.195C64.5895 13.785 65.5595 13.58 66.5895 13.58C67.7195 13.58 68.7545 13.81 69.6945 14.27C70.6445 14.72 71.4545 15.35 72.1245 16.16C72.8045 16.97 73.3095 17.91 73.6395 18.98C73.9795 20.05 74.1045 21.195 74.0145 22.415H61.7745C61.8945 23.265 62.1745 24.025 62.6145 24.695C63.0545 25.355 63.6145 25.88 64.2945 26.27C64.9845 26.66 65.7495 26.86 66.5895 26.87C67.4895 26.87 68.3045 26.64 69.0345 26.18C69.7645 25.71 70.3545 25.07 70.8045 24.26L73.3695 24.86C72.7695 26.19 71.8645 27.28 70.6545 28.13C69.4445 28.97 68.0895 29.39 66.5895 29.39ZM61.6995 20.435H71.4795C71.3995 19.595 71.1295 18.83 70.6695 18.14C70.2095 17.44 69.6245 16.88 68.9145 16.46C68.2045 16.04 67.4295 15.83 66.5895 15.83C65.7495 15.83 64.9795 16.035 64.2795 16.445C63.5795 16.855 62.9995 17.41 62.5395 18.11C62.0895 18.8 61.8095 19.575 61.6995 20.435ZM74.8289 29L80.3189 21.47L74.8589 13.97H77.9639L81.8789 19.31L85.7789 13.97H88.8839L83.4239 21.47L88.9139 29H85.8089L81.8789 23.6L77.9339 29H74.8289ZM91.5129 14H94.0329V29H91.5129V14ZM92.8029 11.555C92.4029 11.555 92.0679 11.425 91.7979 11.165C91.5279 10.905 91.3929 10.58 91.3929 10.19C91.3929 9.8 91.5279 9.475 91.7979 9.215C92.0679 8.955 92.3979 8.825 92.7879 8.825C93.1779 8.825 93.5079 8.955 93.7779 9.215C94.0479 9.475 94.1829 9.8 94.1829 10.19C94.1829 10.58 94.0479 10.905 93.7779 11.165C93.5179 11.425 93.1929 11.555 92.8029 11.555ZM109.491 14H112.011V29H109.491L109.386 26.465C108.916 27.335 108.266 28.04 107.436 28.58C106.616 29.12 105.636 29.39 104.496 29.39C103.396 29.39 102.366 29.185 101.406 28.775C100.446 28.355 99.5959 27.78 98.8559 27.05C98.1259 26.31 97.5559 25.46 97.1459 24.5C96.7359 23.54 96.5309 22.505 96.5309 21.395C96.5309 20.325 96.7309 19.315 97.1309 18.365C97.5309 17.415 98.0859 16.585 98.7959 15.875C99.5159 15.155 100.346 14.595 101.286 14.195C102.226 13.785 103.236 13.58 104.316 13.58C105.496 13.58 106.531 13.86 107.421 14.42C108.311 14.97 109.031 15.685 109.581 16.565L109.491 14ZM104.451 26.945C105.441 26.945 106.296 26.705 107.016 26.225C107.746 25.735 108.306 25.075 108.696 24.245C109.096 23.415 109.296 22.5 109.296 21.5C109.296 20.48 109.096 19.56 108.696 18.74C108.296 17.91 107.731 17.255 107.001 16.775C106.281 16.285 105.431 16.04 104.451 16.04C103.461 16.04 102.561 16.285 101.751 16.775C100.941 17.265 100.296 17.925 99.8159 18.755C99.3459 19.575 99.1109 20.49 99.1109 21.5C99.1109 22.51 99.3559 23.43 99.8459 24.26C100.336 25.08 100.986 25.735 101.796 26.225C102.606 26.705 103.491 26.945 104.451 26.945Z" fill="#DA68F2"/>
</svg>
